<svg width="510" height="494" viewBox="0 0 510 494" fill="none" xmlns="http://www.w3.org/2000/svg">
<path d="M380.649 36.0007C345.039 22.9407 313.109 34.2707 299.909 40.3307L295.079 42.4507L316.909 76.4037L347.599 87.4197C352.832 86.7417 369.823 84.5427 375.859 83.7697C401.223 80.5027 405.879 44.9807 380.649 36.0007Z" fill="#A44200"/>
<path d="M471.279 183.701C445.352 156.449 455.355 139.79 429.079 113.251C395.196 79.0297 347.499 87.4267 347.599 87.4207H347.579L426.429 292.761C424.758 299.336 422.273 307.17 419.329 314.841C412.533 332.526 423.39 352.703 442.549 355.271C461.879 358.101 475.019 344.761 476.249 343.481C514.367 298.835 515.983 230.597 471.279 183.701Z" fill="#A44200"/>
<path d="M40.5091 463.381C46.1093 463.381 50.6491 458.841 50.6491 453.241C50.6491 447.641 46.1093 443.101 40.5091 443.101C34.909 443.101 30.3691 447.641 30.3691 453.241C30.3691 458.841 34.909 463.381 40.5091 463.381Z" fill="white"/>
<path d="M123.049 420.901L102.979 440.971L69.3088 424.671L52.7788 390.771L72.8488 370.701L102.979 386.671L123.049 420.901Z" fill="white"/>
<path d="M106.339 157.911C111.569 152.681 120.059 152.681 125.289 157.911L130.159 162.781L258.242 246.871L330.969 363.591L335.839 368.461C341.069 373.691 341.069 382.181 335.839 387.411L290.239 433.011C285.009 438.241 276.519 438.241 271.289 433.011C123.117 324.072 144.699 339.939 142.509 338.329L62.0189 223.741L60.7389 222.461C55.5089 217.231 55.5089 208.741 60.7389 203.511C71.5789 192.671 95.5509 168.698 106.339 157.911Z" fill="#A44200"/>
<path d="M102.979 440.971L65.6088 478.341C51.7378 492.212 29.2698 492.202 15.4088 478.341C1.53885 464.481 1.53885 442.001 15.4088 428.141L52.7788 390.771L102.979 440.971ZM47.6788 460.411C51.6388 456.451 51.6388 450.031 47.6788 446.071C43.7188 442.111 37.2988 442.111 33.3388 446.071C29.3788 450.031 29.3788 456.451 33.3388 460.411C37.2988 464.371 43.7188 464.371 47.6788 460.411ZM270.009 431.731L258.829 442.911C246.739 454.991 227.589 456.291 213.989 445.951L172.969 414.781C158.719 403.941 138.649 405.311 125.979 417.971L123.049 420.901L72.8488 370.701L75.7788 367.771C88.4388 355.101 89.8088 335.031 78.9688 320.781L47.7988 279.761C37.4588 266.161 38.7588 247.011 50.8388 234.921L62.0188 223.741L270.009 431.731ZM130.159 162.781L244.909 5.0007C281.032 30.2277 315.111 57.5817 347.599 87.4207H347.579C381.689 127.851 423.069 153.671 431.329 227.241C434.056 251.572 431.143 277.121 425.959 294.501C394.299 317.541 362.629 340.561 330.969 363.591C324.485 357.107 142.334 174.957 130.159 162.781Z" fill="white"/>
<path d="M267.755 436.544L57.2051 225.994C50.0141 218.805 50.0131 207.166 57.2051 199.973L102.802 154.376C109.974 147.202 121.649 147.203 128.823 154.375L339.373 364.926C346.564 372.115 346.565 383.755 339.373 390.947L293.776 436.543C286.587 443.735 274.946 443.736 267.755 436.544ZM109.872 161.447C63.6601 208.848 61.8151 206.82 61.8151 212.984C61.8151 219.596 53.5861 206.95 274.825 429.473C278.108 432.754 283.422 432.757 286.704 429.473C333.11 381.875 334.762 384.084 334.762 377.937C334.762 371.323 342.991 383.97 121.752 161.447C118.475 158.172 113.148 158.174 109.872 161.447Z" fill="#69140E"/>
<path d="M11.871 481.879C-3.956 466.054 -3.958 440.433 11.871 424.606L72.245 364.232C83.086 353.39 84.266 336.01 74.988 323.803L43.816 282.786C32.022 267.268 33.521 245.173 47.304 231.39L58.488 220.206C60.439 218.253 63.607 218.253 65.558 220.206C286.066 441.497 275.008 427.78 275.008 431.726C275.008 435.256 272.452 435.759 262.359 446.446C248.579 460.228 226.482 461.728 210.963 449.933L169.947 418.761C157.741 409.486 140.361 410.664 129.517 421.504L69.143 481.878C53.318 497.706 27.698 497.708 11.871 481.879ZM62.023 230.813L54.375 238.46C44.111 248.724 42.995 265.179 51.777 276.734L82.949 317.751C95.238 333.919 93.676 356.94 79.315 371.301L18.941 431.675C7.049 443.567 7.049 462.916 18.941 474.808C30.834 486.699 50.181 486.699 62.074 474.808L122.448 414.434C136.806 400.074 159.831 398.511 175.999 410.8L217.015 441.972C228.571 450.752 245.025 449.639 255.289 439.374L262.937 431.726L62.023 230.813Z" fill="#69140E"/>
<path d="M29.8001 463.949C23.8961 458.046 23.8961 448.438 29.8001 442.535C35.7041 436.631 45.3101 436.631 51.2141 442.535C57.1181 448.438 57.1181 458.046 51.2141 463.949C45.3091 469.855 35.7051 469.854 29.8001 463.949ZM36.8711 449.605C34.8701 451.608 34.8541 454.86 36.8711 456.878C38.8741 458.879 42.1261 458.895 44.1441 456.878C46.1451 454.875 46.1611 451.623 44.1441 449.605C42.1411 447.604 38.8891 447.589 36.8711 449.605ZM330.97 368.591C327.003 368.591 340.331 379.2 126.623 166.317C124.883 164.578 124.667 161.831 126.114 159.841L240.864 2.06071C242.466 -0.14329 245.536 -0.65929 247.77 0.90171C283.849 26.0937 318.543 53.9347 350.893 83.6567C354.345 86.6747 352.231 92.4207 347.609 92.4207C347.508 92.4017 345.758 92.5197 344.216 91.1027C313.368 62.7547 280.366 36.1327 246.06 11.9187L136.715 162.267L331.483 357.034C387.345 316.409 402.786 305.18 423.016 290.458C425.249 288.833 428.376 289.326 430.001 291.559C431.626 293.792 431.133 296.919 428.9 298.544C409.07 312.975 389.237 327.398 369.405 341.819C332.189 368.452 333.938 368.591 330.97 368.591ZM244.954 370.717L216.974 342.737C215.021 340.785 215.021 337.619 216.974 335.667C218.925 333.714 222.093 333.714 224.044 335.667L252.024 363.647C253.977 365.599 253.977 368.765 252.024 370.717C250.073 372.67 246.905 372.67 244.954 370.717ZM195.843 321.606L69.2431 195.005C67.2901 193.053 67.2901 189.887 69.2431 187.935C71.1941 185.982 74.3621 185.982 76.3131 187.935L202.913 314.536C204.866 316.488 204.866 319.654 202.913 321.606C200.962 323.559 197.794 323.56 195.843 321.606Z" fill="#69140E"/>
<path d="M309.504 349.199C307.551 347.247 307.551 344.081 309.504 342.129L396.409 255.223C398.36 253.27 401.528 253.27 403.479 255.223C405.432 257.175 405.432 260.341 403.479 262.293L316.574 349.199C314.624 351.152 311.456 351.152 309.504 349.199ZM289.474 327.099C285.067 327.099 282.773 321.728 285.939 318.564L341.737 262.767C343.688 260.814 346.856 260.814 348.807 262.767C350.76 264.719 350.76 267.885 348.807 269.837L293.009 325.634C292.034 326.61 290.753 327.099 289.474 327.099ZM262.374 302.069C260.421 300.117 260.421 296.951 262.374 294.999L362.78 194.593C364.731 192.64 367.899 192.64 369.85 194.593C371.803 196.545 371.803 199.711 369.85 201.663L269.445 302.069C267.494 304.022 264.326 304.022 262.374 302.069ZM238.81 278.505C236.857 276.553 236.857 273.387 238.81 271.435L303.617 206.628C305.568 204.675 308.736 204.675 310.687 206.628C312.64 208.58 312.64 211.746 310.687 213.698L245.88 278.505C243.929 280.458 240.761 280.458 238.81 278.505ZM218.78 256.405C214.373 256.405 212.079 251.034 215.245 247.87L299.648 163.467C301.599 161.514 304.767 161.514 306.718 163.467C308.671 165.419 308.671 168.585 306.718 170.537L222.315 254.94C221.339 255.917 220.059 256.405 218.78 256.405ZM191.68 231.375C189.727 229.423 189.727 226.257 191.68 224.305L292.086 123.899C294.037 121.946 297.205 121.946 299.156 123.899C301.109 125.851 301.109 129.017 299.156 130.969L198.75 231.375C196.799 233.328 193.631 233.328 191.68 231.375ZM168.116 207.81C166.163 205.858 166.163 202.692 168.116 200.74L215.245 153.61C217.196 151.657 220.364 151.657 222.315 153.61C224.268 155.562 224.268 158.728 222.315 160.68L175.186 207.81C173.235 209.763 170.067 209.764 168.116 207.81ZM144.55 184.246C142.597 182.294 142.597 179.128 144.55 177.176L244.957 76.7687C246.908 74.8157 250.076 74.8157 252.027 76.7687C253.98 78.7207 253.98 81.8867 252.027 83.8387L151.621 184.246C149.67 186.199 146.501 186.199 144.55 184.246Z" fill="#69140E"/>
<path d="M416.678 342.871C411.638 333.698 410.903 322.828 414.66 313.049C425.879 283.793 429.424 255.11 426.36 227.795C418.313 156.087 378.074 131.321 343.759 90.6447C341.439 87.8947 342.442 83.0157 347.603 82.3707C349.705 82.0447 375.092 78.8297 375.224 78.8127C395.673 76.1767 398.816 47.6477 379.339 40.8437C378.509 40.8077 344.878 25.1977 301.992 44.8757L297.093 47.0317C294.567 48.1437 291.615 46.9947 290.503 44.4677C289.392 41.9407 290.539 38.9897 293.067 37.8777L297.894 35.7547C344.502 14.3677 381.956 31.3807 382.661 31.4107C407.324 40.1407 408.532 72.6497 388.034 84.7977C402.549 88.3887 418.673 95.6367 432.625 109.731C459.813 137.184 449.765 153.858 474.901 180.252C520.94 228.584 520.221 299.708 480.046 346.731C464.31 365.005 429.92 366.98 416.678 342.871ZM357.838 91.5747C390.03 127.428 428.373 156.057 436.298 226.679C439.758 257.527 435.039 287.839 423.995 316.632C421.295 323.66 421.823 331.468 425.442 338.056C434.903 355.283 459.242 353.781 472.539 340.12C509.051 297.226 510.424 232.041 467.662 187.146C441.198 159.362 450.413 141.901 425.52 116.765C402.686 93.7007 373.145 91.1277 357.838 91.5747ZM119.513 424.436L69.314 374.236C67.361 372.284 67.361 369.118 69.314 367.166C71.265 365.213 74.433 365.213 76.384 367.166L126.583 417.366C128.536 419.318 128.536 422.484 126.583 424.436C124.632 426.389 121.464 426.39 119.513 424.436ZM99.444 444.506L49.244 394.307C47.291 392.355 47.291 389.189 49.244 387.237C51.195 385.284 54.363 385.284 56.314 387.237L106.514 437.436C108.467 439.388 108.467 442.554 106.514 444.506C104.563 446.459 101.395 446.459 99.444 444.506Z" fill="#69140E"/>
</svg>
